<?xml version="1.0" standalone="no"?>
<!DOCTYPE svg PUBLIC "-//W3C//DTD SVG 20010904//EN"
 "http://www.w3.org/TR/2001/REC-SVG-20010904/DTD/svg10.dtd">
<svg version="1.0" xmlns="http://www.w3.org/2000/svg"
 width="900.000000pt" height="640.000000pt" viewBox="0 0 900.000000 640.000000"
 preserveAspectRatio="xMidYMid meet">

<g transform="translate(0.000000,640.000000) scale(0.100000,-0.100000)"
fill="#ffff" stroke="none">
<path d="M5825 6380 c-249 -45 -522 -156 -784 -317 -242 -149 -447 -316 -706
-577 -207 -207 -370 -396 -544 -631 -62 -82 -122 -162 -134 -177 l-22 -27 -85
10 c-110 13 -288 3 -420 -24 -97 -20 -133 -22 -475 -21 -249 0 -393 4 -439 13
-290 52 -653 297 -1099 744 l-207 207 0 -43 c0 -95 80 -317 205 -572 134 -272
280 -481 442 -635 171 -162 252 -193 508 -194 147 0 181 3 255 22 140 38 282
83 339 108 29 13 55 24 57 24 3 0 -9 -27 -25 -59 -44 -87 -145 -327 -169 -401
-29 -89 -41 -169 -43 -272 l-2 -88 -36 0 c-49 -1 -114 -31 -138 -66 -11 -16
-28 -50 -38 -76 l-18 -48 -67 6 c-64 6 -69 5 -81 -17 -7 -13 -13 -54 -13 -91
l0 -67 -42 -10 c-75 -19 -134 -49 -143 -74 -5 -13 -12 -59 -15 -103 -12 -150
-17 -168 -80 -299 -60 -123 -201 -375 -277 -494 -37 -60 -41 -91 -24 -241 10
-99 26 -130 66 -130 25 0 45 14 103 73 40 39 100 113 134 162 34 50 72 101 85
113 23 22 25 22 62 6 33 -13 89 -15 431 -12 l394 3 1 -185 c1 -102 3 -198 4
-215 2 -16 6 -70 9 -120 3 -49 8 -110 11 -135 3 -25 16 -142 30 -260 14 -118
29 -258 35 -310 6 -52 12 -111 15 -130 2 -19 9 -82 15 -138 6 -57 15 -114 19
-125 12 -30 56 -73 89 -85 15 -6 268 -59 562 -118 612 -121 626 -123 687 -62
54 54 54 90 -1 363 -119 594 -169 963 -182 1343 l-7 183 456 -3 c250 -2 458
-6 461 -9 4 -3 -19 -66 -50 -140 -254 -610 -367 -889 -371 -919 -6 -48 32
-119 77 -145 34 -19 51 -20 620 -20 l585 0 38 24 c33 20 49 45 114 180 157
324 307 685 471 1131 106 289 304 887 300 905 -2 8 -41 -11 -100 -49 -192
-122 -371 -299 -403 -398 -99 -300 -334 -907 -457 -1178 -44 -96 -89 -196
-101 -222 l-21 -48 -342 0 -343 0 30 73 c17 39 54 131 84 202 63 155 282 672
353 835 28 63 50 115 49 116 -1 1 -399 4 -883 8 l-882 7 -6 -33 c-14 -74 -19
-586 -7 -733 20 -257 83 -693 152 -1052 7 -35 11 -65 8 -67 -2 -2 -151 25
-332 61 -298 60 -328 68 -331 87 -6 28 -61 513 -87 761 -31 300 -28 671 7 923
l6 42 -431 0 c-237 0 -431 2 -431 4 0 2 51 135 114 297 l114 294 44 -2 c23 -1
135 -3 248 -4 216 -3 300 6 395 42 50 19 55 24 65 62 49 190 168 504 266 699
244 487 765 1171 1179 1548 241 220 448 366 685 484 557 277 960 239 1194
-114 38 -57 101 -208 92 -218 -3 -3 -17 0 -31 6 -27 13 -93 16 -119 6 -12 -5
-7 -29 36 -152 58 -170 86 -230 135 -289 19 -24 33 -43 31 -43 -2 0 -52 7
-113 15 -63 8 -190 15 -297 15 l-187 0 -19 43 c-40 91 -126 157 -223 172 -197
29 -683 -295 -1035 -691 -225 -253 -544 -684 -673 -911 -82 -145 -212 -436
-200 -447 2 -2 85 -31 184 -65 339 -114 530 -146 835 -138 255 7 425 42 618
128 75 34 222 119 222 130 0 4 -12 14 -26 23 -35 24 -107 138 -143 230 -44
109 -86 255 -115 398 -43 213 -42 226 8 97 95 -252 237 -516 331 -617 l53 -57
64 1 c112 2 270 78 563 274 128 85 216 127 354 170 90 28 128 48 170 88 45 43
58 46 316 67 282 22 315 29 373 72 65 49 96 140 55 162 -48 25 -472 53 -597
40 -189 -21 -442 -91 -786 -219 -281 -105 -388 -114 -535 -47 -90 41 -91 41
95 27 121 -8 215 0 237 23 21 20 19 484 -1 552 -22 70 -91 184 -180 294 -42
52 -74 96 -71 99 2 3 22 -7 42 -21 77 -54 240 -259 275 -347 20 -50 22 -73 23
-240 0 -102 -4 -215 -8 -252 l-9 -67 45 24 c62 35 124 55 437 143 l275 77 260
0 c143 -1 327 -5 409 -9 137 -8 151 -10 173 -32 16 -16 23 -35 23 -61 0 -46
-46 -146 -88 -190 -16 -18 -28 -33 -25 -33 17 0 211 110 243 138 45 38 90 122
90 169 0 29 -6 36 -67 71 -38 22 -119 63 -182 92 -63 28 -127 61 -143 73 -29
22 -57 74 -99 185 -34 91 -98 165 -204 237 -111 74 -121 93 -130 228 -5 88 -4
110 14 161 22 63 27 101 12 110 -5 3 -23 1 -40 -5 -40 -14 -84 -75 -161 -227
-34 -68 -64 -121 -66 -119 -2 2 -9 55 -15 118 -22 247 -66 432 -144 596 -57
121 -105 192 -190 282 -110 116 -220 188 -371 241 -175 61 -382 76 -579 40z
m1566 -1625 c13 -19 35 -38 49 -41 33 -7 108 -45 123 -63 10 -11 8 -13 -11 -7
-12 4 -56 0 -97 -9 -41 -9 -80 -15 -86 -13 -6 2 -13 22 -15 43 -2 22 -11 59
-19 82 -28 74 8 79 56 8z"/>
<path d="M7781 3959 c-42 -17 -159 -29 -362 -38 -216 -9 -225 -12 -299 -80
-46 -44 -54 -47 -137 -55 -73 -7 -128 -33 -273 -131 -144 -96 -288 -177 -416
-233 -91 -40 -272 -102 -299 -102 -19 0 -19 -22 1 -116 8 -42 19 -109 23 -150
11 -94 29 -124 77 -124 47 0 60 8 197 119 428 347 683 523 857 591 75 29 185
40 385 38 317 -4 350 -3 398 11 60 17 117 68 117 104 0 36 -46 76 -150 131
-48 25 -89 46 -91 45 -2 0 -15 -5 -28 -10z"/>
</g>
</svg>
