<?xml version="1.0" standalone="no"?>
<!DOCTYPE svg PUBLIC "-//W3C//DTD SVG 20010904//EN"
 "http://www.w3.org/TR/2001/REC-SVG-20010904/DTD/svg10.dtd">
<svg version="1.0" xmlns="http://www.w3.org/2000/svg"
 width="300.000000pt" height="300.000000pt" viewBox="0 0 300.000000 300.000000"
 preserveAspectRatio="xMidYMid meet">
<metadata>
Created by potrace 1.10, written by Peter Selinger 2001-2011
</metadata>
<g transform="translate(0.000000,300.000000) scale(0.100000,-0.100000)"
fill="#000000" stroke="none">
<path d="M2513 2990 c-84 -17 -143 -67 -173 -147 -19 -52 -20 -79 -20 -953 l0
-900 -39 0 c-51 0 -79 -32 -57 -65 7 -11 23 -21 35 -23 l21 -3 0 -417 0 -417
-51 1 c-28 1 -56 7 -62 13 -8 8 -164 11 -545 11 l-534 0 49 62 c27 35 168 216
313 403 144 187 266 344 271 349 11 12 126 -55 212 -123 39 -33 96 -89 125
-125 30 -36 61 -66 70 -66 11 0 32 -32 61 -93 51 -107 71 -141 78 -134 7 8
-46 136 -78 187 -18 28 -25 48 -19 54 20 20 9 50 -39 110 -228 286 -631 430
-997 356 -184 -37 -315 -99 -465 -218 -226 -181 -379 -491 -379 -770 0 -58 2
-63 26 -72 38 -15 40 -13 15 14 -13 14 -21 28 -18 33 3 5 7 40 8 78 1 39 6 84
11 100 4 17 11 44 13 60 9 53 46 155 62 170 8 8 12 15 9 15 -8 0 27 69 69 134
42 65 193 221 256 264 83 56 193 110 279 136 97 30 274 56 340 51 119 -11 239
-33 255 -47 5 -4 18 -8 28 -8 38 0 222 -89 267 -130 18 -16 37 -30 42 -30 4 0
42 -33 83 -72 74 -70 115 -123 115 -147 0 -23 -39 -10 -64 23 -66 87 -183 184
-290 240 -81 43 -69 50 -177 -90 -41 -53 -112 -145 -159 -204 -47 -60 -101
-130 -120 -156 -19 -26 -40 -52 -45 -58 -9 -10 -69 -86 -87 -111 -4 -5 -20
-26 -36 -45 -15 -19 -43 -56 -62 -82 -58 -82 -82 -79 499 -77 278 0 514 1 524
0 21 -1 23 -34 2 -51 -21 -18 -13 -22 19 -11 14 6 26 17 26 26 0 11 12 15 49
15 41 0 51 -4 56 -20 3 -11 10 -20 15 -20 5 0 16 -3 26 -7 16 -6 15 -3 -4 21
-21 27 -22 38 -22 197 0 92 4 179 9 192 6 14 7 28 3 31 -3 4 -7 108 -9 232 -2
223 -7 257 -36 251 -7 -1 -12 7 -12 18 0 15 8 20 35 22 19 2 40 9 47 16 10 10
13 195 13 918 l0 906 25 49 c14 28 42 61 64 76 37 27 117 52 133 42 4 -3 7
-449 7 -991 0 -1092 -5 -1018 64 -1018 41 0 50 -30 13 -45 -14 -5 -26 -13 -27
-17 0 -5 -2 -17 -4 -28 -5 -24 -6 -105 -5 -519 0 -290 -2 -321 -18 -339 -16
-19 -16 -19 8 -12 14 4 28 13 32 19 4 6 8 206 8 444 0 409 1 432 18 432 24 0
42 19 42 45 0 31 -19 45 -62 45 l-38 0 0 985 c0 972 0 985 -20 1005 -11 11
-23 20 -27 19 -5 -1 -27 -5 -50 -9z"/>
<path d="M2475 2901 c-44 -27 -66 -55 -76 -98 -14 -58 -12 -1802 2 -1819 7 -9
32 -14 65 -14 42 0 55 4 64 19 7 13 10 305 9 878 0 472 0 895 1 939 1 63 -3
85 -15 98 -20 19 -14 20 -50 -3z m40 -956 l0 -955 -50 0 -50 0 2 897 c2 494 5
909 9 922 5 23 67 91 82 91 4 0 7 -430 7 -955z"/>
<path d="M1193 2325 c-181 -49 -335 -200 -388 -383 -23 -76 -23 -210 0 -287
72 -244 275 -399 525 -399 303 0 542 238 542 540 0 248 -169 467 -409 529 -71
19 -201 18 -270 0z m310 -41 c164 -56 296 -205 332 -374 12 -59 13 -160 0
-225 -10 -58 -71 -178 -115 -228 -40 -45 -152 -127 -173 -127 -7 0 -17 -4 -23
-9 -15 -15 -85 -32 -155 -37 -369 -29 -645 329 -528 684 40 120 144 235 266
293 129 63 258 70 396 23z"/>
<path d="M1290 2263 c-65 -6 -154 -35 -205 -68 -94 -61 -171 -154 -142 -172
16 -10 753 -6 772 5 13 7 11 15 -15 54 -17 25 -43 54 -58 63 -15 10 -34 25
-42 35 -8 9 -49 31 -90 48 -72 29 -145 40 -220 35z m231 -56 c53 -25 91 -53
132 -96 31 -33 57 -64 57 -70 0 -8 -116 -11 -380 -11 -261 0 -380 3 -380 11 0
18 103 120 148 146 81 48 148 64 253 60 85 -3 103 -8 170 -40z"/>
<path d="M885 1951 c-34 -39 -30 -294 6 -316 4 -3 203 -6 440 -6 343 0 434 3
441 13 42 66 43 238 2 305 l-14 22 -428 1 c-417 1 -429 0 -447 -19z m884 -55
c14 -58 14 -144 -1 -201 l-12 -45 -426 0 -426 0 -12 45 c-15 57 -15 143 -1
201 l11 44 428 0 428 0 11 -44z"/>
<path d="M1078 1843 c-22 -5 -35 -50 -21 -72 6 -10 27 -17 52 -19 25 -2 50
-11 62 -23 38 -38 79 -12 79 51 0 52 -26 70 -100 69 -30 -1 -63 -3 -72 -6z
m145 -57 c7 -43 -6 -53 -40 -30 -15 10 -37 20 -48 20 -11 1 -28 2 -37 3 -11 0
-18 9 -18 22 0 18 5 20 69 18 69 -2 69 -2 74 -33z"/>
<path d="M1433 1835 c-42 -30 -24 -125 23 -125 8 0 23 9 34 20 13 13 33 20 58
20 43 0 62 14 62 45 0 40 -16 49 -87 53 -51 2 -74 -1 -90 -13z m145 -36 c2
-12 -8 -18 -38 -23 -23 -3 -52 -13 -65 -22 -30 -20 -45 -11 -39 23 8 42 12 44
77 41 47 -2 63 -7 65 -19z"/>
<path d="M968 1570 c-38 -10 -31 -33 29 -97 58 -61 160 -123 202 -123 11 0 22
-4 26 -10 3 -5 52 -8 113 -6 147 5 213 32 311 126 71 69 85 95 55 107 -19 7
-705 10 -736 3z m742 -19 c0 -20 -91 -108 -144 -140 -151 -91 -335 -88 -482 7
-55 36 -134 114 -134 134 0 4 171 8 380 8 216 0 380 -4 380 -9z"/>
<path d="M864 895 c-23 -12 -53 -30 -67 -41 -13 -10 -35 -26 -47 -34 -52 -35
-154 -138 -201 -203 -68 -93 -125 -214 -155 -332 -13 -49 -24 -125 -24 -161 0
-32 4 -44 18 -48 9 -3 147 -4 306 -2 l290 3 30 38 c116 142 266 345 266 359 0
7 -45 72 -100 145 -55 72 -100 135 -100 141 0 5 -4 10 -9 10 -4 0 -34 34 -66
75 -64 83 -73 87 -141 50z m187 -132 c199 -257 219 -283 219 -289 0 -3 -66
-90 -147 -195 l-147 -189 -298 0 -299 0 2 37 c5 108 55 273 115 380 66 119
186 251 300 330 32 23 124 72 135 73 3 0 57 -66 120 -147z"/>
<path d="M2363 913 c-10 -4 -13 -95 -13 -410 0 -375 1 -407 18 -419 11 -9 47
-13 98 -14 122 0 115 -18 113 311 -3 488 -4 514 -12 527 -8 12 -176 17 -204 5z
m197 -418 l0 -405 -95 0 -95 0 0 405 0 405 95 0 95 0 0 -405z"/>
</g>
</svg>
